<svg width="129" height="28" viewBox="0 0 129 28" fill="none" xmlns="http://www.w3.org/2000/svg">
<g clip-path="url(#clip0_2_308)">
<path d="M0.575348 28H10.0685C14.57 28 18.2192 24.3508 18.2192 19.8493H8.72603C4.22453 19.8493 0.575348 23.4985 0.575348 28Z" fill="#F22BB2"/>
<path d="M1 8.15069V20.137C5.5015 20.137 9.15069 16.4878 9.15069 11.9863V0C4.64919 0 1 3.64919 1 8.15069Z" fill="#8C30F5"/>
<path d="M27.4247 0H17.9315C13.43 0 9.78082 3.64919 9.78082 8.15068H19.274C23.7755 8.15068 27.4247 4.5015 27.4247 0Z" fill="#FE9A22"/>
<path d="M27.4247 19.3699V7.38356C22.9232 7.38356 19.274 11.0327 19.274 15.5342V27.5205C23.7755 27.5205 27.4247 23.8714 27.4247 19.3699Z" fill="#2EC5CE"/>
</g>
<g filter="url(#filter0_dd_2_308)">
<path d="M41.596 11.44H38.74V19H36.01V11.44H33.14V9.06H41.596V11.44ZM41.0863 16.774C41.0863 16.2793 41.2216 15.8453 41.4923 15.472C41.763 15.0893 42.1363 14.7907 42.6123 14.576C43.0976 14.3613 43.6483 14.254 44.2643 14.254C44.5536 14.254 44.8243 14.2773 45.0763 14.324C45.3376 14.3707 45.5616 14.4407 45.7483 14.534V14.31C45.7483 13.9647 45.6456 13.708 45.4403 13.54C45.2443 13.372 44.9223 13.288 44.4743 13.288C44.0636 13.288 43.6763 13.358 43.3123 13.498C42.9576 13.6287 42.5843 13.8247 42.1923 14.086L41.4223 12.434C41.917 12.1167 42.435 11.8833 42.9763 11.734C43.527 11.5753 44.115 11.496 44.7403 11.496C45.907 11.496 46.8076 11.762 47.4423 12.294C48.0863 12.8167 48.4083 13.596 48.4083 14.632V16.06C48.4083 16.312 48.4456 16.4893 48.5203 16.592C48.595 16.6853 48.7256 16.7413 48.9123 16.76V19C48.6976 19.0467 48.4923 19.0793 48.2963 19.098C48.1096 19.126 47.9416 19.14 47.7923 19.14C47.3163 19.14 46.9523 19.056 46.7003 18.888C46.4576 18.7107 46.299 18.454 46.2243 18.118L46.1683 17.852C45.8416 18.272 45.4636 18.594 45.0343 18.818C44.605 19.0327 44.1476 19.14 43.6623 19.14C43.177 19.14 42.7383 19.0373 42.3463 18.832C41.9543 18.6267 41.6463 18.3467 41.4223 17.992C41.1983 17.628 41.0863 17.222 41.0863 16.774ZM45.3983 16.956C45.501 16.8813 45.585 16.802 45.6503 16.718C45.7156 16.6247 45.7483 16.5313 45.7483 16.438V15.892C45.599 15.836 45.4263 15.7893 45.2303 15.752C45.0436 15.7147 44.8756 15.696 44.7263 15.696C44.409 15.696 44.1383 15.7753 43.9143 15.934C43.6996 16.0927 43.5923 16.2933 43.5923 16.536C43.5923 16.6667 43.6296 16.788 43.7043 16.9C43.779 17.0027 43.8816 17.0867 44.0123 17.152C44.143 17.208 44.2923 17.236 44.4603 17.236C44.619 17.236 44.7823 17.2127 44.9503 17.166C45.1276 17.11 45.277 17.04 45.3983 16.956ZM53.5132 19.14C52.8598 19.14 52.2812 19.0373 51.7772 18.832C51.2825 18.6267 50.8625 18.3467 50.5172 17.992C50.1718 17.628 49.9105 17.2173 49.7332 16.76C49.5558 16.3027 49.4672 15.822 49.4672 15.318C49.4672 14.646 49.6212 14.0207 49.9292 13.442C50.2465 12.854 50.7038 12.3827 51.3012 12.028C51.9078 11.6733 52.6452 11.496 53.5132 11.496C54.3998 11.496 55.1465 11.6827 55.7532 12.056C56.3598 12.4293 56.8125 12.91 57.1112 13.498L54.5212 14.282C54.3998 14.1047 54.2505 13.9693 54.0732 13.876C53.9052 13.7827 53.7138 13.736 53.4992 13.736C53.2565 13.736 53.0372 13.8013 52.8412 13.932C52.6452 14.0533 52.4865 14.2307 52.3652 14.464C52.2532 14.6973 52.1972 14.982 52.1972 15.318C52.1972 15.6447 52.2532 15.9293 52.3652 16.172C52.4865 16.4053 52.6452 16.5873 52.8412 16.718C53.0372 16.8393 53.2565 16.9 53.4992 16.9C53.6485 16.9 53.7838 16.8813 53.9052 16.844C54.0265 16.7973 54.1385 16.732 54.2412 16.648C54.3532 16.564 54.4465 16.466 54.5212 16.354L57.1112 17.138C56.9152 17.53 56.6445 17.8753 56.2992 18.174C55.9632 18.4727 55.5618 18.7107 55.0952 18.888C54.6378 19.056 54.1105 19.14 53.5132 19.14ZM57.9813 19V11.636H60.6273V14.114H61.0473L62.6573 11.636H65.4853L63.0493 15.164L65.7233 19H62.6993L60.9772 16.396H60.6273V19H57.9813ZM74.4632 11.44H71.6072V19H68.8772V11.44H66.0072V9.06H74.4632V11.44ZM80.0538 19.14C79.5218 19.14 79.0598 19.0373 78.6678 18.832C78.2758 18.6173 77.9724 18.3093 77.7578 17.908V21.982H75.0978V11.636H77.4078V12.742C77.6691 12.3407 77.9911 12.0327 78.3738 11.818C78.7658 11.6033 79.2371 11.496 79.7878 11.496C80.2824 11.496 80.7351 11.5893 81.1458 11.776C81.5564 11.9627 81.9158 12.2287 82.2238 12.574C82.5318 12.9193 82.7698 13.3207 82.9378 13.778C83.1058 14.2353 83.1898 14.7393 83.1898 15.29C83.1898 16.0273 83.0544 16.6853 82.7838 17.264C82.5131 17.8427 82.1398 18.3 81.6638 18.636C81.1971 18.972 80.6604 19.14 80.0538 19.14ZM79.1298 16.9C79.3258 16.9 79.5031 16.858 79.6618 16.774C79.8298 16.69 79.9744 16.5733 80.0958 16.424C80.2171 16.2747 80.3104 16.102 80.3758 15.906C80.4411 15.71 80.4738 15.5 80.4738 15.276C80.4738 15.0427 80.4364 14.8327 80.3618 14.646C80.2964 14.4593 80.1984 14.3007 80.0678 14.17C79.9371 14.03 79.7831 13.9227 79.6058 13.848C79.4284 13.7733 79.2324 13.736 79.0178 13.736C78.8964 13.736 78.7751 13.7547 78.6538 13.792C78.5418 13.82 78.4344 13.8667 78.3318 13.932C78.2291 13.988 78.1264 14.0627 78.0238 14.156C77.9304 14.2493 77.8418 14.3613 77.7578 14.492V15.766C77.8418 15.9807 77.9538 16.1767 78.0938 16.354C78.2431 16.522 78.4064 16.6573 78.5838 16.76C78.7611 16.8533 78.9431 16.9 79.1298 16.9ZM87.7882 19.14C87.1442 19.14 86.5702 19.042 86.0662 18.846C85.5622 18.6407 85.1376 18.3653 84.7922 18.02C84.4562 17.6747 84.1996 17.278 84.0222 16.83C83.8449 16.382 83.7562 15.9107 83.7562 15.416C83.7562 14.7067 83.9102 14.058 84.2182 13.47C84.5262 12.8727 84.9789 12.3967 85.5762 12.042C86.1736 11.678 86.9109 11.496 87.7882 11.496C88.6656 11.496 89.4029 11.6733 90.0002 12.028C90.5976 12.3827 91.0502 12.8493 91.3582 13.428C91.6662 14.0067 91.8202 14.6367 91.8202 15.318C91.8202 15.458 91.8109 15.6027 91.7922 15.752C91.7829 15.892 91.7689 16.018 91.7502 16.13H86.5842C86.6029 16.3913 86.6729 16.606 86.7942 16.774C86.9249 16.9327 87.0836 17.0493 87.2702 17.124C87.4662 17.1987 87.6669 17.236 87.8722 17.236C88.1616 17.236 88.4322 17.1707 88.6842 17.04C88.9456 16.9093 89.1182 16.7273 89.2022 16.494L91.4562 17.138C91.2602 17.53 90.9849 17.8753 90.6302 18.174C90.2849 18.4727 89.8742 18.7107 89.3982 18.888C88.9222 19.056 88.3856 19.14 87.7882 19.14ZM86.5282 14.534H88.9642C88.9362 14.2913 88.8662 14.086 88.7542 13.918C88.6516 13.75 88.5116 13.6193 88.3342 13.526C88.1662 13.4327 87.9702 13.386 87.7462 13.386C87.5222 13.386 87.3216 13.4327 87.1442 13.526C86.9762 13.6193 86.8362 13.75 86.7242 13.918C86.6216 14.086 86.5562 14.2913 86.5282 14.534ZM92.7215 19V11.636H95.3675V14.114H95.7875L97.3975 11.636H100.225L97.7895 15.164L100.463 19H97.4395L95.7175 16.396H95.3675V19H92.7215ZM104.796 19.14C104.152 19.14 103.578 19.042 103.074 18.846C102.57 18.6407 102.145 18.3653 101.8 18.02C101.464 17.6747 101.207 17.278 101.03 16.83C100.853 16.382 100.764 15.9107 100.764 15.416C100.764 14.7067 100.918 14.058 101.226 13.47C101.534 12.8727 101.987 12.3967 102.584 12.042C103.181 11.678 103.919 11.496 104.796 11.496C105.673 11.496 106.411 11.6733 107.008 12.028C107.605 12.3827 108.058 12.8493 108.366 13.428C108.674 14.0067 108.828 14.6367 108.828 15.318C108.828 15.458 108.819 15.6027 108.8 15.752C108.791 15.892 108.777 16.018 108.758 16.13H103.592C103.611 16.3913 103.681 16.606 103.802 16.774C103.933 16.9327 104.091 17.0493 104.278 17.124C104.474 17.1987 104.675 17.236 104.88 17.236C105.169 17.236 105.44 17.1707 105.692 17.04C105.953 16.9093 106.126 16.7273 106.21 16.494L108.464 17.138C108.268 17.53 107.993 17.8753 107.638 18.174C107.293 18.4727 106.882 18.7107 106.406 18.888C105.93 19.056 105.393 19.14 104.796 19.14ZM103.536 14.534H105.972C105.944 14.2913 105.874 14.086 105.762 13.918C105.659 13.75 105.519 13.6193 105.342 13.526C105.174 13.4327 104.978 13.386 104.754 13.386C104.53 13.386 104.329 13.4327 104.152 13.526C103.984 13.6193 103.844 13.75 103.732 13.918C103.629 14.086 103.564 14.2913 103.536 14.534ZM114.657 19.14C114.125 19.14 113.663 19.0373 113.271 18.832C112.879 18.6173 112.576 18.3093 112.361 17.908V21.982H109.701V11.636H112.011V12.742C112.273 12.3407 112.595 12.0327 112.977 11.818C113.369 11.6033 113.841 11.496 114.391 11.496C114.886 11.496 115.339 11.5893 115.749 11.776C116.16 11.9627 116.519 12.2287 116.827 12.574C117.135 12.9193 117.373 13.3207 117.541 13.778C117.709 14.2353 117.793 14.7393 117.793 15.29C117.793 16.0273 117.658 16.6853 117.387 17.264C117.117 17.8427 116.743 18.3 116.267 18.636C115.801 18.972 115.264 19.14 114.657 19.14ZM113.733 16.9C113.929 16.9 114.107 16.858 114.265 16.774C114.433 16.69 114.578 16.5733 114.699 16.424C114.821 16.2747 114.914 16.102 114.979 15.906C115.045 15.71 115.077 15.5 115.077 15.276C115.077 15.0427 115.04 14.8327 114.965 14.646C114.9 14.4593 114.802 14.3007 114.671 14.17C114.541 14.03 114.387 13.9227 114.209 13.848C114.032 13.7733 113.836 13.736 113.621 13.736C113.5 13.736 113.379 13.7547 113.257 13.792C113.145 13.82 113.038 13.8667 112.935 13.932C112.833 13.988 112.73 14.0627 112.627 14.156C112.534 14.2493 112.445 14.3613 112.361 14.492V15.766C112.445 15.9807 112.557 16.1767 112.697 16.354C112.847 16.522 113.01 16.6573 113.187 16.76C113.365 16.8533 113.547 16.9 113.733 16.9Z" fill="black"/>
</g>
<defs>
<filter id="filter0_dd_2_308" x="29.14" y="6.06" width="92.6533" height="20.922" filterUnits="userSpaceOnUse" color-interpolation-filters="sRGB">
<feFlood flood-opacity="0" result="BackgroundImageFix"/>
<feColorMatrix in="SourceAlpha" type="matrix" values="0 0 0 0 0 0 0 0 0 0 0 0 0 0 0 0 0 0 127 0" result="hardAlpha"/>
<feMorphology radius="1" operator="dilate" in="SourceAlpha" result="effect1_dropShadow_2_308"/>
<feOffset dy="1"/>
<feGaussianBlur stdDeviation="1.5"/>
<feColorMatrix type="matrix" values="0 0 0 0 0 0 0 0 0 0 0 0 0 0 0 0 0 0 0.15 0"/>
<feBlend mode="normal" in2="BackgroundImageFix" result="effect1_dropShadow_2_308"/>
<feColorMatrix in="SourceAlpha" type="matrix" values="0 0 0 0 0 0 0 0 0 0 0 0 0 0 0 0 0 0 127 0" result="hardAlpha"/>
<feOffset dy="1"/>
<feGaussianBlur stdDeviation="1"/>
<feColorMatrix type="matrix" values="0 0 0 0 0 0 0 0 0 0 0 0 0 0 0 0 0 0 0.3 0"/>
<feBlend mode="normal" in2="effect1_dropShadow_2_308" result="effect2_dropShadow_2_308"/>
<feBlend mode="normal" in="SourceGraphic" in2="effect2_dropShadow_2_308" result="shape"/>
</filter>
<clipPath id="clip0_2_308">
<rect width="28" height="28" fill="white"/>
</clipPath>
</defs>
</svg>
